<svg version="1.2" baseProfile="tiny-ps" xmlns="http://www.w3.org/2000/svg" viewBox="0 0 32 30" width="32" height="30">
	<title>Group 4</title>
	<style>
		tspan { white-space:pre }
		.s0 { fill: #d9d9d9 } 
	</style>
	<g id="Group 4">
		<path id="Shape 1" class="s0" d="m32 29.14c0 0.45-0.37 0.82-0.82 0.82l-30.34 0.04c0 0 0 0 0 0c-0.22 0-0.43-0.09-0.58-0.24c-0.15-0.15-0.24-0.36-0.24-0.58l-0.02-17.8c0-0.01 0-0.01 0-0.01c0-0.26 0.13-0.51 0.35-0.66l4.6-3.19v-3.38c0-0.45 0.37-0.82 0.82-0.82h5.25l4.51-3.12c0.28-0.19 0.65-0.19 0.93 0l4.48 3.12h5.27c0.45 0 0.82 0.37 0.82 0.82v3.42l4.58 3.19c0.16 0.11 0.27 0.28 0.32 0.46c0.02 0.04 0.03 0.11 0.03 0.16l0.02 17.77zm-4.96-19.58l2.62 1.82l-2.62 1.82v-3.65zm-11.04-7.69l2.08 1.45h-4.18l2.09-1.45zm-9.4 3.09h18.81v9.39l-6.31 4.4l-2.57-2c0 0-0.01-0.01-0.01-0.01c-0.29-0.22-0.69-0.22-0.99 0.01l-2.59 2.02l-6.32-4.38v-9.42zm-1.64 4.55v3.73l-2.7-1.87l2.7-1.87zm-3.32 3.44l9.92 6.87l-9.9 7.69l-0.02-14.56zm1.6 15.4l12.77-9.92l12.72 9.89l-25.49 0.04zm17.2-8.55l9.89-6.89l0.02 14.59l-9.91-7.7zm1.92-10.73c0 0.45-0.37 0.82-0.82 0.82h-11.1c-0.45 0-0.82-0.37-0.82-0.82c0-0.45 0.37-0.82 0.82-0.82h11.1c0.45 0 0.82 0.37 0.82 0.82zm0 4.27c0 0.45-0.37 0.82-0.82 0.82h-11.1c-0.45 0-0.82-0.37-0.82-0.82c0-0.45 0.37-0.82 0.82-0.82h11.1c0.45 0 0.82 0.37 0.82 0.82z" />
	</g>
</svg>