<svg version="1.2" baseProfile="tiny-ps" xmlns="http://www.w3.org/2000/svg" viewBox="0 0 137 137" width="137" height="137">
	<title>01 copy</title>
	<style>
		tspan { white-space:pre }
		.s0 { fill: #ffffff } 
		.s1 { fill: #f26522 } 
	</style>
	<g id="01 copy">
		<g id="ucin">
			<path id="Ellipse 2" class="s0" d="m68.5 6c34.52 0 62.5 27.98 62.5 62.5c0 34.52-27.98 62.5-62.5 62.5c-34.52 0-62.5-27.98-62.5-62.5c0-34.52 27.98-62.5 62.5-62.5z" />
			<path id="Forma 1" class="s1" d="m47.91 53.26l-2.77-4.06l6.41-4.42v-8.1h6.16v3.85l10.99-7.57l1.4-0.97l1.37 0.97l23.79 16.37l-2.76 4.07l-2.92-2.01v24.59c-0.4 0.39-0.81 0.77-1.22 1.15c-1.19 1.1-2.43 2.15-3.68 3.19v-32.01l-14.61-10.32l-14.94 10.34v26.03h-4.89v-22.7l-2.33 1.61zm23.17 20.55h-3.35v-2.72c-1.61-0.13-3.23-0.61-4.22-1.28l-0.33-0.22l1.05-3.67l0.6 0.36c1.23 0.73 2.69 1.14 4.02 1.14c1.44 0 2.38-0.65 2.38-1.64c0-0.68-0.32-1.43-2.64-2.29c-2.53-0.92-5.12-2.29-5.12-5.47c0-2.56 1.69-4.5 4.44-5.16v-2.82h3.35v2.6c1.3 0.1 2.42 0.4 3.5 0.94l0.41 0.2l-1.05 3.6l-0.73-0.34c-0.65-0.31-1.75-0.82-3.36-0.82c-1.3 0-2.07 0.52-2.07 1.39c0 0.76 0.73 1.3 2.99 2.21c3.36 1.27 4.8 2.96 4.8 5.64c0 2.67-1.81 4.75-4.66 5.38v2.95v0zm30.41 15.94c-4.12 4.59-15.48 13.87-31.93 13.87h-19.1c-2.64 0-5.23-1.14-6.9-2.07c0 0-0.51-0.37-0.87-0.55v3h-9.7v-28.22h9.7v2.72c1.62-1.05 3.54-1.63 5.49-1.63l20.79-0.02c5.82 0.03 10.03 4.02 10.01 9.34c0 0.95-0.15 1.62-0.37 2.18c2.48-0.48 5.54-1.75 7.98-4.88c2.71-3.82 5.91-4.63 8.11-4.63c2.61 0 4.93 1.12 6.13 2.08c1.71 1.37 2.88 2.62 3.01 4.21c0.15 1.79-1.13 3.21-2.36 4.58zm-62.04-7.74h-3.39v-3.41h3.39v3.41h0zm59.52 5.45c-3.82 4.26-14.32 12.74-29.41 12.74h-19.1c-3.23 0-6.71-2.54-6.74-2.57c-0.3-0.22-0.65-0.33-1.01-0.33c-0.01 0-0.02 0-0.02 0v-15.04c0.37 0.01 0.74-0.1 1.05-0.34l0.37-0.28c1.15-0.88 2.6-1.37 4.06-1.37l20.78-0.02c3.32 0.01 6.65 1.93 6.64 5.91c0 2.3-1.52 2.42-1.61 2.44h-15.23c-0.94 0-1.7 0.76-1.7 1.71c0 0.94 0.76 1.71 1.7 1.71h16.17l0.9 0c2.54 0 8.93-0.6 13.47-6.47c0.01-0.02 0.03-0.04 0.04-0.06c1.51-2.14 3.32-3.22 5.37-3.22c1.85 0 3.44 0.88 4.02 1.34c1.7 1.36 1.75 1.81 1.75 1.83c0 0.34-1.09 1.56-1.5 2.02z" />
		</g>
	</g>
</svg>