<svg version="1.2" baseProfile="tiny-ps" xmlns="http://www.w3.org/2000/svg" viewBox="0 0 137 137" width="137" height="137">
	<title>01</title>
	<style>
		tspan { white-space:pre }
		.s0 { fill: #ffffff } 
		.s1 { fill: #f26522 } 
	</style>
	<g id="01">
		<g id="ucin">
			<path id="Ellipse 2" class="s0" d="m68.5 6c34.52 0 62.5 27.98 62.5 62.5c0 34.52-27.98 62.5-62.5 62.5c-34.52 0-62.5-27.98-62.5-62.5c0-34.52 27.98-62.5 62.5-62.5z" />
			<path id="Forma 1" class="s1" d="m39.66 68.87c-0.66-0.79-0.58-1.99 0.18-2.67l10.35-9.27v-10.1c0-2.09 1.64-3.78 3.66-3.78c2.02 0 3.66 1.7 3.66 3.78v3.55l9.78-8.76c0.69-0.62 1.71-0.62 2.4 0l27.46 24.59c0.76 0.69 0.84 1.88 0.18 2.67c-0.36 0.43-0.87 0.65-1.38 0.65c-0.43 0-0.85-0.15-1.2-0.46l-26.25-23.51l-26.25 23.51c-0.76 0.68-1.92 0.6-2.58-0.19zm21.52 8.22h14.64v18.91h10.98c2.02 0 3.66-1.7 3.66-3.78v-18.54c0-1.14-0.49-2.21-1.34-2.93l-18.3-15.5c-0.67-0.57-1.49-0.86-2.32-0.86c-0.82 0-1.65 0.29-2.32 0.86l-18.3 15.5c-0.85 0.72-1.34 1.79-1.34 2.93v18.54c0 2.09 1.64 3.78 3.66 3.78h10.98v-18.91z" />
		</g>
	</g>
</svg>