<svg version="1.2" baseProfile="tiny-ps" xmlns="http://www.w3.org/2000/svg" viewBox="0 0 137 137" width="137" height="137">
	<title>01 copy 2</title>
	<style>
		tspan { white-space:pre }
		.s0 { fill: #ffffff } 
		.s1 { fill: #f26522 } 
		.t2 { font-size: 22px;line-height: 26px;fill: #f26522;font-weight: 700;font-family: "Roboto-Bold", "Roboto" } 
	</style>
	<g id="01 copy 2">
		<g id="ucin">
			<path id="Ellipse 2" class="s0" d="m68.5 6c34.52 0 62.5 27.98 62.5 62.5c0 34.52-27.98 62.5-62.5 62.5c-34.52 0-62.5-27.98-62.5-62.5c0-34.52 27.98-62.5 62.5-62.5z" />
			<path id="Forma 1" class="s1" d="m107.78 80.9v16.47c0 0.9-0.74 1.63-1.65 1.63h-13.11h-13.11h-22.82h-13.11h-13.11c-0.91 0-1.65-0.73-1.65-1.63v-16.47c0-0.51 0.24-0.99 0.66-1.3l12.46-9.29v-3.73c0-0.51 0.24-0.99 0.66-1.3l24.52-18.29c0.59-0.44 1.4-0.44 1.98 0l24.52 18.29c0.41 0.31 0.66 0.79 0.66 1.3v3.73l12.46 9.29c0.41 0.31 0.66 0.79 0.66 1.3zm-37.5 14.84h-3.56v-8.22h3.56v8.22zm3.3 0v-9.85c0-0.9-0.74-1.63-1.65-1.63h-6.86c-0.91 0-1.65 0.73-1.65 1.63v9.85h-7.98h-9.82v-28.35l22.87-17.06l22.87 17.06v28.35h-9.82h-7.98zm-41.07-14.03l9.82-7.32v21.35h-9.82v-14.03zm71.98 14.03h-9.82v-21.35l9.82 7.32v14.03zm-74.94-26.94c-0.55-0.72-0.4-1.74 0.32-2.28l37.64-28.07c0.59-0.44 1.4-0.44 1.98 0l37.64 28.08c0.73 0.54 0.87 1.56 0.32 2.28c-0.32 0.43-0.82 0.65-1.32 0.65c-0.35 0-0.69-0.11-0.99-0.33l-36.64-27.33l-36.64 27.33c-0.73 0.54-1.76 0.4-2.31-0.32z" />
			<text id="?" style="transform: matrix(1,0,0,1,67.15,78.353)" >
				<tspan x="-5.5" y="0" class="t2">?
</tspan>
			</text>
		</g>
	</g>
</svg>